C:\GBW_MyPrograms\KinderuniversiteitApp\Resultaten\Ellis_1010\Kleuter\Kleuter_v1.mot
version=1
nRows=14
nColumns=29
inDegrees=yes
endheader
                time	         pelvis_tilt	           pelvis_tx	           pelvis_ty	       hip_flexion_l	       hip_flexion_r	        knee_angle_l	        knee_angle_r	       ankle_angle_l	       ankle_angle_r	    lumbar_extension	hamstrings_r/activation	bifemsh_r/activation	glut_max_r/activation	iliopsoas_r/activation	rect_fem_r/activation	  vasti_r/activation	gastroc_r/activation	 soleus_r/activation	tib_ant_r/activation	hamstrings_l/activation	bifemsh_l/activation	glut_max_l/activation	iliopsoas_l/activation	rect_fem_l/activation	  vasti_l/activation	gastroc_l/activation	 soleus_l/activation	tib_ant_l/activation	
          1.61495512	          1.36676095	          0.83506533	          0.89893718	        -19.76931985	         23.92065208	        -13.46732654	        -10.42034843	          8.25080982	         -1.41935329	         -7.40042928	          0.10000566	          0.09996790	          0.10007272	          0.10000565	          0.10000566	          0.10006868	          0.10000566	          0.10000566	          0.10000566	          0.10000566	          0.09996751	          0.21318745	          0.10000566	          0.10000566	          0.10002200	          0.10000566	          0.10000566	          0.10000566	
          1.63110467	          1.35139953	          0.85041430	          0.89695332	        -19.36601930	         24.30172406	        -15.52240348	        -12.01537727	          6.59818294	         -2.28513259	         -7.16178711	          0.10000566	          0.10000227	          0.09990755	          0.10000568	          0.10000566	          0.10002720	          0.10000566	          0.10000566	          0.10000566	          0.10000566	          0.09991971	          0.16777329	          0.10000566	          0.10000566	          0.10011251	          0.10000566	          0.10000566	          0.10000566	
          1.64725422	          1.25159657	          0.86565173	          0.89512663	        -18.85267877	         24.57266715	        -17.84582994	        -13.40090955	          4.45296672	         -3.03689418	         -6.90924465	          0.10000567	          0.09999632	          0.09997337	          0.10000567	          0.10000567	          0.10000635	          0.10000567	          0.10000567	          0.10000567	          0.10000567	          0.09974933	          0.13239462	          0.10000567	          0.10000567	          0.10017717	          0.10000567	          0.10000567	          0.10000563	
          1.66340377	          1.22245142	          0.88094691	          0.89685916	        -18.51123139	         24.41547593	        -20.32385716	        -14.51424776	          2.54544958	         -3.67900698	         -6.90334971	          0.10000567	          0.09998777	          0.10000840	          0.10000567	          0.10000567	          0.10002129	          0.10000567	          0.10000567	          0.10000567	          0.10000567	          0.10022651	          0.14069798	          0.10000567	          0.10000567	          0.09992483	          0.10000567	          0.10000567	          0.10000567	
          1.67955332	          1.15614313	          0.89604727	          0.89722041	        -17.77344881	         24.32898161	        -22.98162271	        -16.07176644	          0.43740732	         -4.01670437	         -6.79862362	          0.10000567	          0.10000433	          0.10000237	          0.10000567	          0.10000567	          0.10000439	          0.10000567	          0.10000567	          0.10000567	          0.10000567	          0.09996258	          0.11096751	          0.10000567	          0.10000567	          0.10000914	          0.10000567	          0.10000567	          0.10000567	
          1.69570287	          1.02886112	          0.91109913	          0.89751883	        -16.67494488	         24.18729840	        -25.95593275	        -17.33353813	         -1.76719396	         -4.60861725	         -6.58616841	          0.10000567	          0.10000452	          0.09999869	          0.10000567	          0.10000567	          0.10000753	          0.10000567	          0.10000567	          0.10000567	          0.10000567	          0.09995166	          0.10747432	          0.10000567	          0.10000567	          0.10001618	          0.10000567	          0.10000567	          0.10000567	
          1.71185243	          0.85384303	          0.92625367	          0.89760311	        -15.38974060	         23.87392088	        -28.94792277	        -18.29002280	         -4.24007196	         -5.10665030	         -6.30900432	          0.10000567	          0.10000600	          0.10000222	          0.10000567	          0.10000567	          0.10000512	          0.10000567	          0.10000567	          0.10000567	          0.10000567	          0.09999152	          0.10285932	          0.10000567	          0.10000567	          0.10000589	          0.10000567	          0.10000567	          0.10000567	
          1.72800198	          0.63370866	          0.94126134	          0.89757225	        -13.85560683	         23.62610433	        -32.08106244	        -19.35632899	         -6.21963161	         -4.64428315	         -5.98087748	          0.10000567	          0.09998940	          0.10001060	          0.10000567	          0.10000567	          0.10000785	          0.10000567	          0.10000567	          0.10000567	          0.10000567	          0.09994366	          0.10608463	          0.10000567	          0.10000567	          0.10000775	          0.10000567	          0.10000567	          0.10000567	
          1.74415153	          0.50273119	          0.95588241	          0.89787599	        -12.16546102	         23.35710677	        -35.40089912	        -20.50410669	         -8.34071484	         -4.06968967	         -5.79851431	          0.10000567	          0.09999020	          0.10000081	          0.10000567	          0.10000567	          0.10000760	          0.10000567	          0.10000567	          0.10000567	          0.10000567	          0.09993638	          0.10404718	          0.10000567	          0.10000567	          0.10000686	          0.10000567	          0.10000567	          0.10000567	
          1.76030108	          0.48113922	          0.97015202	          0.89861862	        -10.37706765	         22.94992270	        -38.86463255	        -21.57154997	         -9.96434979	         -3.37622917	         -5.77447844	          0.10000567	          0.09999277	          0.09999859	          0.10000567	          0.10000567	          0.10000733	          0.10000567	          0.10000567	          0.10000567	          0.10000567	          0.09996853	          0.10226873	          0.10000567	          0.10000567	          0.10000606	          0.10000567	          0.10000567	          0.10000567	
          1.77645063	          0.49305887	          0.98418321	          0.89973146	         -8.45743717	         22.35140420	        -42.33537593	        -22.33251829	        -11.36769937	         -2.57740696	         -5.79782768	          0.10000567	          0.09999248	          0.10000062	          0.10000567	          0.10000567	          0.10000737	          0.10000567	          0.10000567	          0.10000567	          0.10000567	          0.10005475	          0.10101397	          0.10000567	          0.10000567	          0.10000551	          0.10000567	          0.10000567	          0.10000567	
          1.79260018	          0.48087805	          0.99799314	          0.90114285	         -6.37715079	         21.58137069	        -45.73148063	        -22.71201978	        -12.35074126	         -1.69878475	         -5.79786155	          0.10000567	          0.09999008	          0.10000398	          0.10000567	          0.10000567	          0.10000745	          0.10000567	          0.10000567	          0.10000567	          0.10000567	          0.10015202	          0.10042868	          0.10000567	          0.10000567	          0.10000535	          0.10000567	          0.10000567	          0.10000567	
          1.80874973	          0.44642748	          1.01155173	          0.90283663	         -4.16799188	         20.67681110	        -48.97770503	        -22.76994848	        -12.90638696	         -0.78533055	         -5.78351901	          0.10000567	          0.09998634	          0.10000595	          0.10000567	          0.10000567	          0.10000753	          0.10000567	          0.10000567	          0.10000567	          0.10000567	          0.10012601	          0.10030734	          0.10000567	          0.10000567	          0.10000553	          0.10000567	          0.10000567	          0.10000567	
          1.82489928	          0.40378124	          1.02484271	          0.90476040	         -1.87771077	         19.68506192	        -52.01969513	        -22.61148669	        -13.06161868	          0.12914592	         -5.77669966	          0.10000567	          0.09998742	          0.10000537	          0.10000567	          0.10000567	          0.10000716	          0.10000567	          0.10000567	          0.10000567	          0.10000567	          0.09989632	          0.10041419	          0.10000567	          0.10000567	          0.10000570	          0.10000567	          0.10000567	          0.10000567	
